<?xml version="1.0" encoding="utf-8"?>
<!-- Generator: Adobe Illustrator 21.1.0, SVG Export Plug-In . SVG Version: 6.00 Build 0)  -->
<svg version="1.1" id="Layer_1" xmlns="http://www.w3.org/2000/svg" xmlnsXlink="http://www.w3.org/1999/xlink" x="0px" y="0px"
	 viewBox="0 0 36 36" style="enable-background:new 0 0 36 36;" xml:space="preserve">
<metadata>
<style type="text/css">
	.st0{fill:#F7931E;}
</style>
<g>

	<animateTransform attributeName="transform"
		attributeType="XML"
		type="rotate"
		from="16 16 16"
		to="376 20 20"
		dur="3s"
		repeatCount="indefinite" />

	<path class="st0" d="M31.6,9l0-0.1L16.8,0.6l-14.1,9L2.6,9.7l0.5,17.3l14.6,8.2l0.1,0.1l14.3-9.1L31.6,9z M18.2,8.5l12.7,0.9
		l-4.1,12.6L18.2,8.5z M26.5,22.4L9.6,22.6l8-14.1L26.5,22.4z M30.5,8.8L18,7.9l-0.8-6.6L30.5,8.8z M16.6,1.3L17.5,8L3.7,9.6
		L16.6,1.3z M17.1,8.5l-8,13.9l-6-12.3L17.1,8.5z M3.1,10.8l5.8,12l-5.3,3.7L3.1,10.8z M3.8,26.9l5.3-3.7l8,11.1L3.8,26.9z
		 M17.8,34.5L9.6,23.1L26,22.8L17.8,34.5z M18.6,34.2l8.2-11.5c1.2,0.9,3.7,2.7,4.6,3.3L18.6,34.2z M27.1,22.4l4-12.3l0.5,15.5
		C30.7,25,28.7,23.5,27.1,22.4z"/>
	<path class="st0" d="M17.3,19.6L17.3,19.6l-1.9,0c1.3-1.5,2.2-2.2,2.2-3.2c0-0.9-0.9-1.3-1.7-1.3c-0.6,0-1.2,0.3-1.5,0.6l0.9,1l0,0
		c0-0.1-0.1-0.2-0.1-0.4c0-0.4,0.2-0.9,0.7-0.9c0.4,0,0.7,0.2,0.7,0.8c0,1-0.9,2.4-2.3,4.1l0,0l3.4-0.1l0-1.6h0L17.3,19.6z"/>
	<path class="st0" d="M20,20.4c1.2,0,2-1,1.9-2.7c0-1.7-0.9-2.7-2-2.7s-2,1-1.9,2.7C18,19.5,18.8,20.4,20,20.4z M19.9,15.4
		c0.7,0,0.8,0.7,0.9,2.3c0,1.6-0.1,2.3-0.8,2.3c-0.7,0-0.8-0.7-0.9-2.3C19.1,16.2,19.2,15.4,19.9,15.4z"/>
	<path class="st0" d="M10.4,15.8l2-2.5L11,12.6l0,0l0.5,0.7l0,0l-1,1.3C9.8,13,9.9,11.9,9,11.4C8.3,11,7.4,11.4,6.9,12
		c-0.4,0.5-0.4,1-0.4,1.4l1.3-0.1l0,0c-0.1,0-0.2-0.1-0.4-0.1c-0.4-0.2-0.6-0.6-0.3-0.9c0.2-0.3,0.6-0.4,1.1-0.1
		C9.1,12.6,9.7,14,10.4,15.8L10.4,15.8z"/>
	<path class="st0" d="M19.7,6.7l1.5,0.1l0.4,0.9l0,0c0.2-0.1,0.7-0.1,0.9,0l-0.3-0.8l0.1,0l0.4-0.3l0,0l-0.7-0.1L20.9,4l0,0L19,6.3
		l0,0L19.7,6.7z M20.5,5.2L20.5,5.2l0.6,1.3l-1.4-0.1l0,0L20.5,5.2z"/>
	<path class="st0" d="M6.5,19.6L6.5,19.6c0.1,0.5,0,0.8-0.2,1.2l-1.5,2.4l0,0.1c0.3,0.1,0.6,0.4,0.8,0.6l0,0l-0.2-0.5l0,0L6.8,21
		l0.3,0.4l0,0L6.5,19.6z"/>
	<path class="st0" d="M4.8,20.7c0,0.1-0.1,0.2-0.1,0.3c-0.2,0.2-0.4,0.3-0.5,0c-0.1-0.2-0.1-0.6,0.1-0.9c0.4-0.6,1.1-0.7,2.1-0.8
		l0,0L5.5,17l-0.6,0.9l0,0l0.4-0.2l0,0L5.8,19c-0.9,0-1.3-0.3-1.7,0.3c-0.3,0.5-0.3,1.3,0,1.9c0.2,0.4,0.4,0.6,0.6,0.7L4.8,20.7
		L4.8,20.7z"/>
	<path class="st0" d="M11.2,6.9l1.2-2.3l-0.1,0c-0.5,0.2-1.2,0.5-1.6,0.6l0,0l0.6,0l0,0l-1.2,2.1L9.5,7.6l0,0l1.9-0.1l0,0
		C11.1,7.5,11,7.3,11.2,6.9z"/>
	<path class="st0" d="M14.9,4.6c-0.7,0-1.4,0.3-1.6,0.8c-0.2,0.4,0,0.6,0.3,0.6l0,0c-0.5,0.1-0.9,0.3-1.2,0.8
		c-0.3,0.5,0.1,0.8,0.9,0.8c0.8,0,1.5-0.4,1.8-0.9c0.2-0.4,0-0.6-0.4-0.7l0,0c0.4-0.1,0.8-0.3,1-0.7C16,4.8,15.5,4.6,14.9,4.6z
		 M14.2,6.7c-0.2,0.3-0.5,0.6-0.9,0.6c-0.4,0-0.4-0.2-0.2-0.6c0.2-0.3,0.5-0.6,1-0.7C14.4,6.1,14.4,6.4,14.2,6.7z M14.9,5.3
		c-0.2,0.4-0.5,0.6-0.8,0.7c-0.2-0.1-0.3-0.3-0.1-0.7c0.2-0.3,0.5-0.5,0.7-0.5C15,4.8,15.1,4.9,14.9,5.3z"/>
	<path class="st0" d="M30.2,17.3c-0.6-0.2-1.1,0.6-1.3,1.4c-0.2,0.8-0.2,1.6,0.2,1.7c0.4,0.1,0.8-0.4,1-1.1l0.1-0.2l0.1-0.6
		c0.4,0.3,0.5,1,0.2,2l0.1,0C31.1,18.9,30.9,17.5,30.2,17.3z M30.1,18.8c-0.2,0.6-0.4,0.8-0.8,0.7c-0.2-0.1-0.4-0.3-0.3-0.6
		c0.1-0.4,0.4-0.6,1-0.5c0.1,0,0.2,0.1,0.2,0.1L30.1,18.8z"/>
	<path class="st0" d="M28.6,20.8L28.6,20.8l-0.5,0.5l0,0l0.1,0.7l0,0c0.1-0.2,0.3-0.5,0.5-0.5l0,0C28.6,21.4,28.6,21,28.6,20.8z"/>
	<path class="st0" d="M26.7,24.3L26.7,24.3l-1.4,2l0,0c0.3-0.4,0.5-0.6,0.8-0.5l1.4,0.3l0-0.1c0.1-0.4,0.4-1,0.6-1.4l0,0l-0.4,0.6
		l0,0l-1.3-0.3L26.7,24.3z"/>
	<path class="st0" d="M26.1,26.4c-0.6-0.1-1.2,0.5-1.7,1.3c-0.5,0.7-0.6,1.4-0.3,1.4c0.3,0.1,0.9-0.3,1.3-1l0.1-0.2l0.3-0.5
		c0.3,0.2,0.2,0.8-0.4,1.7l0.1,0C26.4,27.8,26.7,26.6,26.1,26.4z M25.5,27.7c-0.3,0.5-0.6,0.7-1,0.6c-0.2,0-0.3-0.2,0-0.6
		c0.3-0.4,0.6-0.5,1.1-0.4c0.1,0,0.1,0,0.2,0.1L25.5,27.7z"/>
	<path class="st0" d="M11.3,28.5l-0.9,1.1l0.1,0.1c0.4,0.2,1.1,0.7,1.5,1.1l0,0l-0.6-0.6l0,0l0.8-1.1l0.7,0.5l0,0l-2-2l0,0
		C11.4,28.1,11.5,28.4,11.3,28.5z"/>
	<path class="st0" d="M7.5,25.3c-0.4,0.5,0.1,1.4,0.9,2.3c0.9,0.9,1.7,1.3,2.1,0.8c0.4-0.5-0.1-1.4-0.9-2.3
		C8.7,25.2,7.8,24.9,7.5,25.3z M8.3,26.2c0.3-0.4,0.6-0.5,1.1,0c0.5,0.5,0.5,0.8,0.1,1.3c-0.3,0.4-0.6,0.5-1.1,0S8,26.6,8.3,26.2z"
		/>
	<path class="st0" d="M26.7,10.1L26.7,10.1c-0.5-0.1-1.2-0.4-1.5-0.7l0,0.1l0.4,0.6l0,0l-2.6,2.8l-0.6-0.4l0,0.1l1.3,1.9l0-0.1
		c-0.2-0.5-0.1-0.9,0.3-1.4L26.7,10.1z"/>
	<path class="st0" d="M28.7,12.5L28.7,12.5L24.5,13l0,0l0,0.7l0.8,1.2l-0.9,1l0,0c0.2,0.1,0.5,0.4,0.6,0.6l0.8-0.8l0,0.1l0.6,0.1
		l0,0l-0.3-0.5L28.7,12.5z M25.6,14.6l-0.7-1.1l0,0l2-0.3l0,0L25.6,14.6z"/>
	<path class="st0" d="M21,28.2l-0.7,0l0,0l0-3.8l0.8-0.3l0-0.1l-2.5,0l0,0.1c0.5,0.1,0.8,0.4,0.8,1.1l0.1,4l0.1,0
		C19.8,28.8,20.6,28.4,21,28.2L21,28.2z"/>
	<path class="st0" d="M17.7,25.2l-1.5,0l0-1.3h0c-0.3,0.1-0.7,0.2-1,0.2l0,1.1l-0.1,0l-0.6,0.5l0,0l0.7,0l0,3.8h0l3-3.9l0,0
		L17.7,25.2z M16.2,27.6L16.2,27.6l-0.1-1.9l1.4,0l0,0L16.2,27.6z"/>
</g>
</svg>
